<svg class="pokko" viewBox="0 0 35 32" fill="none" xmlns="http://www.w3.org/2000/svg"><path d="M26.8749 23.25C26.0481 25.2134 28.1315 26.4442 30.8435 27.7377C24.9896 28.0252 3.40411 27.7377 8.54439 18.0612C12.2323 11.1188 25.4038 9.75065 31.1958 9.56139C35.5945 9.41766 27.8311 20.9793 26.8749 23.25Z" class="pokko__frog--accent"></path><path fill-rule="evenodd" clip-rule="evenodd" d="M24.7604 2.76846C27.0454 2.56604 29.1405 2.64497 30.8315 3.05116C32.033 3.33977 32.9467 3.89813 33.5309 4.73508C34.0999 5.55032 34.2343 6.45736 34.2343 7.21009C34.2343 8.49769 33.8771 9.92616 33.3941 11.3227C32.905 12.7368 32.2506 14.2185 31.5845 15.6353C31.2504 16.3458 30.9097 17.0479 30.5823 17.7213L30.5323 17.8242C30.2217 18.4631 29.925 19.0735 29.6524 19.6517C29.0675 20.8924 28.6384 21.8942 28.4381 22.6152C28.1663 23.5937 28.4641 24.5376 29.2439 25.3021C30.0428 26.0854 31.3389 26.6479 32.8821 26.6479C33.6289 26.6479 34.2343 27.2533 34.2343 28.0001C34.2343 28.7469 33.6289 29.3523 32.8821 29.3523C30.7066 29.3523 28.7067 28.5627 27.3506 27.2332C25.9753 25.8849 25.259 23.9554 25.8324 21.8914C26.1016 20.9222 26.6255 19.7304 27.2062 18.4986C27.4859 17.9053 27.7891 17.2814 28.0975 16.6472L28.0975 16.6471L28.1501 16.539C28.4779 15.8646 28.8114 15.1773 29.1371 14.4847C29.7903 13.0952 30.3965 11.716 30.8382 10.4387C31.2861 9.14381 31.5299 8.05046 31.5299 7.21009C31.5299 6.75553 31.4453 6.47211 31.3132 6.28292C31.1963 6.11543 30.9268 5.85537 30.1999 5.68075C27.0378 4.92121 21.5831 5.5426 16.2359 7.44078C10.8848 9.34035 6.08655 12.3618 3.95969 16.005C1.65061 19.9604 3.82477 25.2509 9.18205 27.2395C12.761 28.568 15.6007 28.587 17.5572 28.2351C18.541 28.0582 19.3037 27.7871 19.8278 27.5393C20.0268 27.4451 20.1856 27.3571 20.3054 27.2827C20.303 27.011 20.2732 26.6212 20.1997 26.1426C20.0465 25.1441 19.718 23.8545 19.1417 22.5769C17.9851 20.0132 15.9614 17.729 12.5165 17.5181C11.3032 17.4438 10.4526 17.967 9.93011 18.7288C9.37887 19.5325 9.19223 20.6137 9.44806 21.5636C9.64228 22.2847 9.21515 23.0267 8.49405 23.2209C7.77294 23.4151 7.03093 22.988 6.83672 22.2669C6.37498 20.5525 6.70115 18.6553 7.69988 17.1991C8.72736 15.7011 10.4639 14.683 12.6817 14.8187C17.519 15.1149 20.228 18.4085 21.6068 21.4648C22.2982 22.9974 22.688 24.5283 22.8728 25.7324C22.9651 26.3337 23.01 26.8774 23.01 27.3184C23.01 27.5363 22.9991 27.757 22.9688 27.9606C22.9496 28.0895 22.8919 28.4745 22.6392 28.8115C22.4416 29.0748 22.1661 29.2901 21.9348 29.4482C21.6746 29.6261 21.355 29.8085 20.9841 29.984C20.2405 30.3357 19.2495 30.6786 18.0359 30.8968C15.5979 31.3353 12.2681 31.2698 8.24094 29.7749C1.75908 27.3689 -1.75758 20.4343 1.62415 14.6415C4.23367 10.1716 9.76878 6.86678 15.3312 4.8922C16.6875 4.41073 18.0719 3.99903 19.4465 3.66524C19.3901 3.44772 19.3601 3.21958 19.3601 2.98443C19.3601 1.49083 20.5709 0.280029 22.0645 0.280029C23.4854 0.280029 24.6503 1.37584 24.7604 2.76846ZM20.2939 27.5622C20.2882 27.6004 20.2857 27.5928 20.2949 27.555L20.2939 27.5622Z" class="pokko__frog--outline"></path></svg>